<svg xmlns="http://www.w3.org/2000/svg" viewBox="0 0 100 116" width="100" height="116" role="img" aria-label="Invisible Net">
  <path d="M50 6 L90 22 V54 C90 80 73 96 50 105 C27 96 10 80 10 54 V22 Z" fill="#1f1f1f" stroke="#c9a876" stroke-width="2.5" stroke-linejoin="round"/>
  <path d="M50 14 L83 27 V54 C83 76 69 89 50 97 C31 89 17 76 17 54 V27 Z" fill="none" stroke="#c9a876" stroke-width="1" opacity="0.45" stroke-linejoin="round"/>
  <g stroke="#c9a876" stroke-width="1.7" opacity="0.85" fill="none" stroke-linecap="round">
    <path d="M36 50 L50 62 L64 50 M36 74 L50 62 L64 74"/>
  </g>
  <g fill="#f0eee6">
    <circle cx="36" cy="50" r="3"/><circle cx="64" cy="50" r="3"/>
    <circle cx="36" cy="74" r="3"/><circle cx="64" cy="74" r="3"/>
  </g>
  <circle cx="50" cy="62" r="5.4" fill="#c9a876"/>
</svg>
